<svg width="44" height="32" viewBox="0 0 44 32" fill="none" xmlns="http://www.w3.org/2000/svg">
<rect x="35.9485" y="24.5078" width="2.35035" height="2.35035" rx="0.094014" fill="#3082BE" stroke="white" stroke-opacity="0.15" stroke-width="0.0176276"/>
<rect x="6.73962" y="6.69824" width="1.76276" height="1.76276" rx="0.094014" fill="#3082BE" stroke="white" stroke-opacity="0.15" stroke-width="0.0176276"/>
<rect x="4.70654" y="4.70117" width="1.41021" height="1.41021" rx="0.094014" fill="#3082BE" stroke="white" stroke-opacity="0.15" stroke-width="0.0176276"/>
<rect x="4.70068" y="9.20703" width="1.41021" height="1.41021" rx="0.094014" fill="#3082BE" stroke="white" stroke-opacity="0.15" stroke-width="0.0176276"/>
<rect x="11.3287" y="6.8457" width="2.35035" height="2.35035" rx="0.094014" fill="#3082BE" stroke="white" stroke-opacity="0.15" stroke-width="0.0176276"/>
<rect x="13.9141" y="6.8457" width="2.35035" height="2.35035" rx="0.094014" fill="#3082BE" stroke="white" stroke-opacity="0.15" stroke-width="0.0176276"/>
<rect x="16.4995" y="6.8457" width="2.35035" height="2.35035" rx="0.094014" fill="#3082BE" stroke="white" stroke-opacity="0.15" stroke-width="0.0176276"/>
<rect x="8.69629" y="9.43066" width="2.35035" height="2.35035" rx="0.094014" fill="#3082BE" stroke="white" stroke-opacity="0.15" stroke-width="0.0176276"/>
<rect x="11.2817" y="9.43066" width="2.35035" height="2.35035" rx="0.094014" fill="#3082BE" stroke="white" stroke-opacity="0.15" stroke-width="0.0176276"/>
<rect x="13.8671" y="9.43066" width="2.35035" height="2.35035" rx="0.094014" fill="#3082BE" stroke="white" stroke-opacity="0.15" stroke-width="0.0176276"/>
<rect x="16.4525" y="9.43066" width="2.35035" height="2.35035" rx="0.094014" fill="#3082BE" stroke="white" stroke-opacity="0.15" stroke-width="0.0176276"/>
<rect x="19.0378" y="9.43066" width="1.17517" height="2.35035" rx="0.094014" fill="#3082BE" stroke="white" stroke-opacity="0.15" stroke-width="0.0176276"/>
<rect x="6.34595" y="12.0166" width="2.35035" height="2.35035" rx="0.094014" fill="#3082BE" stroke="white" stroke-opacity="0.15" stroke-width="0.0176276"/>
<rect x="8.93134" y="12.0166" width="2.35035" height="2.35035" rx="0.094014" fill="#3082BE" stroke="white" stroke-opacity="0.15" stroke-width="0.0176276"/>
<rect x="16.4525" y="12.0166" width="2.35035" height="2.35035" rx="0.094014" fill="#3082BE" stroke="white" stroke-opacity="0.15" stroke-width="0.0176276"/>
<rect x="19.0378" y="12.0166" width="1.17517" height="2.35035" rx="0.094014" fill="#3082BE" stroke="white" stroke-opacity="0.15" stroke-width="0.0176276"/>
<rect x="6.34595" y="14.6016" width="2.35035" height="2.35035" rx="0.094014" fill="#3082BE" stroke="white" stroke-opacity="0.15" stroke-width="0.0176276"/>
<rect x="8.93134" y="14.6016" width="2.35035" height="2.35035" rx="0.094014" fill="#3082BE" stroke="white" stroke-opacity="0.15" stroke-width="0.0176276"/>
<rect x="16.4525" y="14.6016" width="2.35035" height="2.35035" rx="0.094014" fill="#3082BE" stroke="white" stroke-opacity="0.15" stroke-width="0.0176276"/>
<rect x="19.0378" y="14.6016" width="1.17517" height="2.35035" rx="0.094014" fill="#3082BE" stroke="white" stroke-opacity="0.15" stroke-width="0.0176276"/>
<rect x="6.34595" y="17.1865" width="2.35035" height="2.35035" rx="0.094014" fill="#3082BE" stroke="white" stroke-opacity="0.15" stroke-width="0.0176276"/>
<rect x="8.93134" y="17.1865" width="2.35035" height="2.35035" rx="0.094014" fill="#3082BE" stroke="white" stroke-opacity="0.15" stroke-width="0.0176276"/>
<rect x="11.5167" y="17.2451" width="2.23283" height="2.23283" rx="0.094014" fill="#3082BE" stroke="white" stroke-opacity="0.15" stroke-width="0.0176276"/>
<rect x="13.9846" y="17.2451" width="2.23283" height="2.23283" rx="0.094014" fill="#3082BE" stroke="white" stroke-opacity="0.15" stroke-width="0.0176276"/>
<rect x="16.4525" y="17.1865" width="2.35035" height="2.35035" rx="0.094014" fill="#3082BE" stroke="white" stroke-opacity="0.15" stroke-width="0.0176276"/>
<rect x="19.0378" y="17.1865" width="1.17517" height="2.35035" rx="0.094014" fill="#3082BE" stroke="white" stroke-opacity="0.15" stroke-width="0.0176276"/>
<rect x="6.34595" y="19.7725" width="2.35035" height="2.35035" rx="0.094014" fill="#3082BE" stroke="white" stroke-opacity="0.15" stroke-width="0.0176276"/>
<rect x="8.93134" y="19.7725" width="2.35035" height="2.35035" rx="0.094014" fill="#3082BE" stroke="white" stroke-opacity="0.15" stroke-width="0.0176276"/>
<rect x="16.4525" y="19.7725" width="2.35035" height="2.35035" rx="0.094014" fill="#3082BE" stroke="white" stroke-opacity="0.15" stroke-width="0.0176276"/>
<rect x="19.0378" y="19.7725" width="1.17517" height="2.35035" rx="0.094014" fill="#3082BE" stroke="white" stroke-opacity="0.15" stroke-width="0.0176276"/>
<rect x="6.34595" y="22.3574" width="2.35035" height="2.35035" rx="0.094014" fill="#3082BE" stroke="white" stroke-opacity="0.15" stroke-width="0.0176276"/>
<rect x="8.93134" y="22.3574" width="2.35035" height="2.35035" rx="0.094014" fill="#3082BE" stroke="white" stroke-opacity="0.15" stroke-width="0.0176276"/>
<rect x="16.4525" y="22.3574" width="2.35035" height="2.35035" rx="0.094014" fill="#3082BE" stroke="white" stroke-opacity="0.15" stroke-width="0.0176276"/>
<rect x="19.0378" y="22.3574" width="1.17517" height="2.35035" rx="0.094014" fill="#3082BE" stroke="white" stroke-opacity="0.15" stroke-width="0.0176276"/>
<rect x="6.34595" y="24.9434" width="2.35035" height="2.35035" rx="0.094014" fill="#3082BE" stroke="white" stroke-opacity="0.15" stroke-width="0.0176276"/>
<rect x="8.93134" y="24.9434" width="2.35035" height="2.35035" rx="0.094014" fill="#3082BE" stroke="white" stroke-opacity="0.15" stroke-width="0.0176276"/>
<rect x="16.4525" y="24.9434" width="2.35035" height="2.35035" rx="0.094014" fill="#3082BE" stroke="white" stroke-opacity="0.15" stroke-width="0.0176276"/>
<rect x="19.0378" y="24.9434" width="1.17517" height="2.35035" rx="0.094014" fill="#3082BE" stroke="white" stroke-opacity="0.15" stroke-width="0.0176276"/>
<rect x="21.1531" y="9.43066" width="1.17517" height="2.35035" rx="0.094014" fill="#3082BE" stroke="white" stroke-opacity="0.15" stroke-width="0.0176276"/>
<rect x="22.5634" y="9.43066" width="2.35035" height="2.35035" rx="0.094014" fill="#3082BE" stroke="white" stroke-opacity="0.15" stroke-width="0.0176276"/>
<rect x="25.1487" y="9.43066" width="2.35035" height="2.35035" rx="0.094014" fill="#3082BE" stroke="white" stroke-opacity="0.15" stroke-width="0.0176276"/>
<rect x="27.7341" y="9.43066" width="2.35035" height="2.35035" rx="0.094014" fill="#3082BE" stroke="white" stroke-opacity="0.15" stroke-width="0.0176276"/>
<rect x="30.3195" y="9.43066" width="2.35035" height="2.35035" rx="0.094014" fill="#3082BE" stroke="white" stroke-opacity="0.15" stroke-width="0.0176276"/>
<rect x="32.9048" y="9.43066" width="2.35035" height="2.35035" rx="0.094014" fill="#3082BE" stroke="white" stroke-opacity="0.15" stroke-width="0.0176276"/>
<rect x="21.1531" y="12.0166" width="1.17517" height="2.35035" rx="0.094014" fill="#3082BE" stroke="white" stroke-opacity="0.15" stroke-width="0.0176276"/>
<rect x="22.5634" y="12.0166" width="2.35035" height="2.35035" rx="0.094014" fill="#3082BE" stroke="white" stroke-opacity="0.15" stroke-width="0.0176276"/>
<rect x="21.1531" y="14.6016" width="1.17517" height="2.35035" rx="0.094014" fill="#3082BE" stroke="white" stroke-opacity="0.15" stroke-width="0.0176276"/>
<rect x="22.5634" y="14.6016" width="2.35035" height="2.35035" rx="0.094014" fill="#3082BE" stroke="white" stroke-opacity="0.15" stroke-width="0.0176276"/>
<rect x="21.1531" y="17.1865" width="1.17517" height="2.35035" rx="0.094014" fill="#3082BE" stroke="white" stroke-opacity="0.15" stroke-width="0.0176276"/>
<rect x="22.5634" y="17.1865" width="2.35035" height="2.35035" rx="0.094014" fill="#3082BE" stroke="white" stroke-opacity="0.15" stroke-width="0.0176276"/>
<rect x="27.7341" y="17.1865" width="2.35035" height="2.35035" rx="0.094014" fill="#3082BE" stroke="white" stroke-opacity="0.15" stroke-width="0.0176276"/>
<rect x="30.3195" y="17.1865" width="2.35035" height="2.35035" rx="0.094014" fill="#3082BE" stroke="white" stroke-opacity="0.15" stroke-width="0.0176276"/>
<rect x="32.9049" y="17.1865" width="2.35035" height="2.35035" rx="0.094014" fill="#3082BE" stroke="white" stroke-opacity="0.15" stroke-width="0.0176276"/>
<rect x="21.1531" y="19.7725" width="1.17517" height="2.35035" rx="0.094014" fill="#3082BE" stroke="white" stroke-opacity="0.15" stroke-width="0.0176276"/>
<rect x="22.5634" y="19.7725" width="2.35035" height="2.35035" rx="0.094014" fill="#3082BE" stroke="white" stroke-opacity="0.15" stroke-width="0.0176276"/>
<rect x="30.3195" y="19.7725" width="2.35035" height="2.35035" rx="0.094014" fill="#3082BE" stroke="white" stroke-opacity="0.15" stroke-width="0.0176276"/>
<rect x="32.9048" y="19.7725" width="2.35035" height="2.35035" rx="0.094014" fill="#3082BE" stroke="white" stroke-opacity="0.15" stroke-width="0.0176276"/>
<rect x="21.1531" y="22.3574" width="1.17517" height="2.35035" rx="0.094014" fill="#3082BE" stroke="white" stroke-opacity="0.15" stroke-width="0.0176276"/>
<rect x="22.5634" y="22.3574" width="2.35035" height="2.35035" rx="0.094014" fill="#3082BE" stroke="white" stroke-opacity="0.15" stroke-width="0.0176276"/>
<rect x="30.3195" y="22.3574" width="2.35035" height="2.35035" rx="0.094014" fill="#3082BE" stroke="white" stroke-opacity="0.15" stroke-width="0.0176276"/>
<rect x="32.9049" y="22.3574" width="2.35035" height="2.35035" rx="0.094014" fill="#3082BE" stroke="white" stroke-opacity="0.15" stroke-width="0.0176276"/>
<rect x="21.1531" y="24.9434" width="1.17517" height="2.35035" rx="0.094014" fill="#3082BE" stroke="white" stroke-opacity="0.15" stroke-width="0.0176276"/>
<rect x="22.5634" y="24.9434" width="2.35035" height="2.35035" rx="0.094014" fill="#3082BE" stroke="white" stroke-opacity="0.15" stroke-width="0.0176276"/>
<rect x="25.1487" y="24.9434" width="2.35035" height="2.35035" rx="0.094014" fill="#3082BE" stroke="white" stroke-opacity="0.15" stroke-width="0.0176276"/>
<rect x="27.7341" y="24.9434" width="2.35035" height="2.35035" rx="0.094014" fill="#3082BE" stroke="white" stroke-opacity="0.15" stroke-width="0.0176276"/>
<rect x="30.3195" y="24.9434" width="2.35035" height="2.35035" rx="0.094014" fill="#3082BE" stroke="white" stroke-opacity="0.15" stroke-width="0.0176276"/>
<rect x="32.9049" y="24.9434" width="2.35035" height="2.35035" rx="0.094014" fill="#3082BE" stroke="white" stroke-opacity="0.15" stroke-width="0.0176276"/>
<rect x="22.5986" y="6.8457" width="2.35035" height="2.35035" rx="0.094014" fill="#3082BE" stroke="white" stroke-opacity="0.15" stroke-width="0.0176276"/>
<rect x="25.184" y="6.8457" width="2.35035" height="2.35035" rx="0.094014" fill="#3082BE" stroke="white" stroke-opacity="0.15" stroke-width="0.0176276"/>
<rect x="27.7693" y="6.8457" width="2.35035" height="2.35035" rx="0.094014" fill="#3082BE" stroke="white" stroke-opacity="0.15" stroke-width="0.0176276"/>
<rect x="30.3547" y="6.8457" width="2.35035" height="2.35035" rx="0.094014" fill="#3082BE" stroke="white" stroke-opacity="0.15" stroke-width="0.0176276"/>
<rect x="32.9401" y="6.8457" width="2.35035" height="2.35035" rx="0.094014" fill="#3082BE" stroke="white" stroke-opacity="0.15" stroke-width="0.0176276"/>
</svg>
